<?xml version="1.0" encoding="UTF-8"?><svg id="Layer_2" xmlns="http://www.w3.org/2000/svg" viewBox="0 0 7000 219"><defs><style>.cls-1{fill:#b2b2b2;}</style></defs><g id="content"><polygon class="cls-1" points="0 131 92.1 139 184.2 131 276.31 139 368.41 45 460.51 53 552.61 45 644.72 53 736.82 45 828.92 53 921.03 45 1013.13 95 1105.23 87 1197.34 181 1289.44 173 1381.54 181 1473.65 173 1565.75 181 1657.86 118 1749.96 126 1842.06 118 1934.17 126 2026.27 173 2118.37 181 2210.48 173 2302.58 181 2394.69 173 2486.79 181 2578.9 173 2671 139 2763.11 131 2855.21 139 2947.32 131 3039.42 139 3131.53 131 3223.64 139 3315.74 70 3407.84 78 3499.95 70 3592.06 8 3684.16 0 3776.27 52 3868.37 44 3960.47 52 4052.57 114 4144.67 122 4236.78 114 4328.88 122 4420.99 114 4513.09 122 4605.2 70 4697.3 78 4789.4 131 4881.51 139 4973.62 131 5065.72 139 5157.83 131 5249.93 139 5342.04 131 5434.15 47 5526.25 39 5618.36 47 5710.47 90 5802.57 98 5894.68 90 5986.79 190 6078.9 182 6171 190 6263.11 182 6355.22 190 6447.33 182 6539.44 190 6631.55 182 6723.66 139 6815.77 131 6907.88 139 7000 131 7000 219 0 219 0 131"/></g></svg>