<?xml version="1.0" encoding="UTF-8"?><svg id="Layer_2" xmlns="http://www.w3.org/2000/svg" viewBox="0 0 7000 219"><defs><style>.cls-1{fill:#b2b2b2;}</style></defs><g id="content"><polygon class="cls-1" points="0 131 92.1 131 184.2 131 276.31 131 368.41 45 460.51 45 552.61 45 644.72 45 736.82 45 828.92 45 921.03 45 1013.13 87 1105.23 87 1197.34 173 1289.44 173 1381.54 173 1473.65 173 1565.75 173 1657.86 126 1749.96 126 1842.06 126 1934.17 126 2026.27 181 2118.37 181 2210.48 181 2302.58 181 2394.69 181 2486.79 181 2578.9 181 2671 131 2763.11 131 2855.21 131 2947.32 131 3039.42 131 3131.53 131 3223.64 131 3315.74 70 3407.84 70 3499.95 70 3592.06 0 3684.16 0 3776.27 44 3868.37 44 3960.47 44 4052.57 118 4144.67 118 4236.78 118 4328.88 118 4420.99 118 4513.09 118 4605.2 70 4697.3 70 4789.4 139 4881.51 139 4973.62 139 5065.72 139 5157.83 139 5249.93 139 5342.04 139 5434.15 39 5526.25 39 5618.36 39 5710.47 90 5802.57 90 5894.68 90 5986.79 186 6078.9 186 6171 186 6263.11 186 6355.22 186 6447.33 186 6539.44 186 6631.55 186 6723.66 131 6815.77 131 6907.88 131 7000 131 7000 219 0 219 0 131"/></g></svg>