<?xml version="1.0" encoding="UTF-8"?><svg id="Layer_2" xmlns="http://www.w3.org/2000/svg" viewBox="0 0 6870 243"><defs><style>.cls-1{fill:#fff;}</style></defs><g id="content"><path class="cls-1" d="m0,0v188h191.46c11.15,0,21.88-4.23,30.03-11.84l66.74-62.32c8.15-7.61,18.88-11.84,30.03-11.84h525.71c6.3,0,12.52,1.35,18.26,3.97l74.71,34.07c5.73,2.61,11.96,3.97,18.26,3.97h65.2c11.15,0,21.88,4.23,30.03,11.84l66.74,62.32c8.15,7.61,18.88,11.84,30.03,11.84h340.49c6.95,0,13.81-1.65,20-4.81l73.26-37.38c6.19-3.16,13.05-4.81,20-4.81h253.6c7.94,0,15.74,2.15,22.56,6.22l71.26,42.55c6.82,4.07,14.62,6.22,22.56,6.22h529.32c7.33,0,14.55-1.83,20.99-5.33l72.47-39.34c6.44-3.5,13.66-5.33,20.99-5.33h528.21c8.64,0,17.09-2.54,24.3-7.32l70.01-46.37c7.2-4.77,15.65-7.32,24.3-7.32h156.14c9.62,0,18.97-3.15,26.62-8.97l68.5-52.06c7.66-5.82,17.01-8.97,26.62-8.97h67.31c6.56,0,13.04,1.47,18.97,4.3l74.11,35.41c5.92,2.83,12.4,4.3,18.97,4.3h158.74c10.02,0,19.75,3.42,27.56,9.7l67.96,54.6c7.81,6.28,17.54,9.7,27.56,9.7h434.26c7.08,0,14.06-1.71,20.33-4.98l72.99-38.04c6.28-3.27,13.25-4.98,20.33-4.98h66.67c9.51,0,18.77,3.08,26.38,8.79l68.65,51.43c7.61,5.7,16.87,8.79,26.38,8.79h518.69c12.3,0,24.03-5.15,32.36-14.19l65.96-71.62c8.33-9.04,20.07-14.19,32.36-14.19h153.55c7.46,0,14.79,1.9,21.31,5.51l72.22,39.99c6.52,3.61,13.86,5.51,21.31,5.51h154.09c11.98,0,23.45,4.89,31.75,13.54l66.13,68.93c8.3,8.65,19.76,13.54,31.75,13.54h613.86c7.94,0,15.74-2.15,22.56-6.22l71.27-42.55c6.82-4.07,14.62-6.22,22.56-6.22h201.7V0H0Z"/></g></svg>