<?xml version="1.0" encoding="UTF-8"?><svg id="Layer_2" xmlns="http://www.w3.org/2000/svg" viewBox="0 0 312.29 482.35"><defs><style>.cls-1{fill:#fff;}.cls-2{fill:#ffc200;}.cls-3{fill:#ff8b00;}.cls-4{fill:#ff6700;}.cls-5{fill:#cecece;}.cls-6{fill:#ddd;}.cls-7,.cls-8{opacity:.5;}.cls-7,.cls-9{fill:#828282;}.cls-8{fill:#a6d9ed;}.cls-9{opacity:.25;}</style></defs><g id="content"><g><g><polygon class="cls-3" points="145.38 264.93 45.28 319.5 87.1 315.26 19.23 379.73 59.42 369.89 0 457.02 71.3 388.83 51.1 446.5 85.96 402.9 80.16 449.44 118.84 394.75 104.28 482.35 147.05 380.95 163.22 429.15 168.9 287.5 145.38 264.93"/><polygon class="cls-4" points="147.26 273.74 86.14 307.06 111.68 304.47 70.23 343.84 94.78 337.84 58.49 391.04 102.03 349.4 89.69 384.61 110.98 357.99 107.44 386.41 131.06 353.01 122.17 406.51 148.29 344.59 158.16 374.02 161.63 287.52 147.26 273.74"/></g><g><path class="cls-2" d="m161.95,180.52c-59.82-33.68-105.29,96.17-105.29,96.17,0,0,37.67-61.92,79.28-38.49l26.01-57.69Z"/><path class="cls-2" d="m232.06,220c59.82,33.68-27.62,139.9-27.62,139.9,0,0,33.4-64.32-8.21-87.75l35.83-52.15Z"/><path class="cls-9" d="m250.13,240.21c-3.07-8.03-8.8-14.99-18.07-20.21l-35.83,52.15c7.05,3.97,11.94,9.11,15.21,14.91,12.86-14.43,25.99-30.14,38.69-46.86Z"/><path class="cls-6" d="m273.05,176.66C325.97,82.68,310.05,0,310.05,0c0,0-78.95,29.27-131.86,123.25-22.44,39.86-36.59,84.96-45.45,123.69-.05.07-.1.13-.15.2-2.05,3.64,9.32,13.92,25.39,22.97,16.07,9.05,30.76,13.43,32.81,9.79.04-.07.07-.15.1-.23,28.52-27.66,59.73-63.15,82.18-103.01Z"/><path class="cls-5" d="m184.74,279.05c-6.52-1.7-15.77-5.64-25.53-11.13s-17.93-11.36-22.76-16.06c-1.12,3.56-2.2,7.08-3.24,10.53-.05.07-.1.13-.14.21-2.05,3.64,6.2,12.16,18.41,19.04,12.22,6.88,23.78,9.51,25.83,5.87.04-.07.07-.15.1-.23,2.42-2.68,4.86-5.43,7.33-8.23Z"/><path class="cls-9" d="m184.74,279.05c-1.63-.42-3.44-.99-5.38-1.69-2.67,3.49-5.32,6.93-7.94,10.3-.05.11-.1.23-.17.34-.19.34-.42.66-.69.96,3.45.48,5.91.05,6.75-1.45.04-.07.07-.15.1-.23,2.42-2.68,4.86-5.43,7.33-8.23Z"/><path class="cls-1" d="m160.14,266.27c-15.1-8.5-26.24-17.96-26.7-22.37-.24,1.02-.47,2.03-.71,3.04-.05.07-.1.13-.15.2-2.05,3.64,9.32,13.92,25.39,22.97,16.07,9.05,30.76,13.43,32.81,9.79.04-.07.07-.15.1-.23.74-.72,1.49-1.45,2.24-2.18-4.01,1.9-17.88-2.73-32.98-11.23Z"/><path class="cls-7" d="m223.14,113.78c7.1-12.61,18.92-15.96,31.85-10.1-.67-.46,2.32-2.43,1.6-2.84-13.33-7.5-33.76-4.78-41.26,8.55-7.5,13.33.77,32.21,14.09,39.71.72.4.86-3.17,1.6-2.84-11.72-8.02-14.98-19.87-7.88-32.48Z"/><circle class="cls-8" cx="239.46" cy="122.96" r="27.69"/><path class="cls-9" d="m259.21,98.36c-7.55-4.25-15.98-5.3-23.64-3.6,5.63-.46,11.46.69,16.76,3.68,14.11,7.94,19.11,25.82,11.16,39.93-7.31,12.98-23.01,18.24-36.46,12.82.59.38,1.19.76,1.82,1.11,15.67,8.82,33.17,2,41.55-12.89,8.38-14.89,4.49-32.21-11.19-41.04Z"/><path class="cls-1" d="m224.99,150.33c-14.87-8.37-20.15-27.28-11.78-42.15,8.37-14.87,27.28-20.15,42.15-11.78s20.15,27.28,11.78,42.15c-8.37,14.87-27.28,20.15-42.15,11.78Zm27.17-48.25c-11.74-6.61-26.67-2.44-33.27,9.3-6.61,11.74-2.44,26.67,9.3,33.27,11.74,6.61,26.67,2.44,33.27-9.3,6.61-11.74,2.44-26.67-9.3-33.27Z"/><path class="cls-2" d="m269.86,71.37c12.18,6.85,24.64,11.91,36.81,15.21C316.9,35.58,310.05,0,310.05,0c0,0-33.97,12.59-72.28,47.79,9.13,8.7,19.92,16.73,32.1,23.58Z"/><g><path class="cls-1" d="m310.05,0s-.02,0-.05.02c.03-.01.05-.02.05-.02Z"/><path class="cls-1" d="m310.22,1s0,0,0,.01c0,0,0,0,0-.01Z"/><path class="cls-1" d="m310.05,0s0,.02,0,.05c0-.03,0-.05,0-.05Z"/><path class="cls-1" d="m310.09.25h0s0,0,0,0Z"/><path class="cls-1" d="m309.93.04s0,0,0,0c0,0,0,0,0,0Z"/><path class="cls-1" d="m309.81.09h0s0,0,0,0Z"/><path class="cls-1" d="m309.09.37s0,0,.01,0c0,0,0,0-.01,0Z"/><path class="cls-1" d="m310.07.11s0,0,0,0c0,0,0,0,0,0Z"/><path class="cls-1" d="m306.67,86.58c-12.17-3.3-24.63-8.36-36.8-15.21-12.17-6.85-22.96-14.88-32.09-23.58-1.63,1.49-3.26,3.02-4.9,4.6,9.44,9.25,20.74,17.79,33.59,25.02,12.84,7.23,26.01,12.47,38.81,15.74.5-2.22.96-4.41,1.39-6.57Z"/></g><path class="cls-1" d="m146.44,197.08c-.85,2.62-1.68,5.24-2.49,7.85,9.41,9.54,21.55,18.81,35.65,26.75,14.1,7.94,28.33,13.51,41.36,16.61,1.81-2.04,3.62-4.11,5.42-6.2-13.49-3.01-28.35-8.71-43.07-17-14.72-8.29-27.3-18.03-36.88-28.01Z"/><path class="cls-9" d="m183.81,280.8c3.69.7,6.21.46,6.97-.9.04-.07.07-.15.1-.23,7.96-7.73,16.14-16.06,24.28-24.94,21.31-23.9,43.11-51.8,57.9-78.07C325.97,82.68,310.05,0,310.05,0c0,0-5.3,136.46-126.24,280.8Z"/><path class="cls-2" d="m172.28,263.96c-18.38,32.64-42.33,54-42.33,54,0,0,5.84-31.56,24.21-64.2,18.38-32.64,42.33-54,42.33-54,0,0-5.84,31.56-24.21,64.2Z"/><path class="cls-9" d="m195.68,201.85l-65.6,116.52c-.13.65-.2.99-.2.99,0,0,23.96-21.36,42.33-54,18.38-32.64,24.21-64.2,24.21-64.2,0,0-.26.23-.75.68Z"/></g></g></g></svg>