<?xml version="1.0" encoding="UTF-8"?><svg id="Layer_2" xmlns="http://www.w3.org/2000/svg" viewBox="0 0 255.64 420.07"><defs><style>.cls-1{fill:#fff;}.cls-2{fill:#ffc100;}.cls-3,.cls-4,.cls-5{fill:#ff8a00;}.cls-6{fill:#cdcdcd;}.cls-7{fill:#dcdcdc;}.cls-8{fill:#afafaf;}.cls-9{fill:#1a5606;}.cls-10{fill:#5f9a4e;}.cls-11{fill:#4f7244;}.cls-12{fill:#a5d8ec;}.cls-12,.cls-4{opacity:.5;}.cls-13{fill:#818181;opacity:.25;}.cls-5{opacity:.41;}</style></defs><g id="content"><g><g><path class="cls-5" d="m114.24,287.37c-9.95,47.47-51.97,84.29-59.44,97.82,5.03-25.47,23.61-52.29,23.61-52.29-28.61,31.87-23.83,59.23-62.75,87.17,13.34-20.88,10.27-57.88,36.73-92.71-8.64,5.82-22.19,33.65-27.84,34.06,12.06-25.12,23.39-71.83,52.29-94.71"/><path class="cls-4" d="m113.54,286.99c-19.86,49.06-43.11,71.53-43.11,71.53,0,0,12.21-23.86,16.76-40.18-28.35,20.13-54.63,79.29-54.63,79.29,0,0,13.57-67.13,35.13-86.53-22.44,14.45-24.23,17.69-24.23,17.69,0,0,11.45-42.87,32.85-62.37l37.23,20.56Z"/><path class="cls-3" d="m109.65,284.83c-.48,6.8-16.91,36.56-16.91,36.56,0,0,4.59-11.59,1.93-16.59-8.53,2.35-24.42,14.76-43.73,46.47,3.53-22.77,26.68-41.76,25.62-52.94-11.19-2.65-21.43,9.35-21.43,9.35,7.69-20.47,26.93-38.09,26.93-38.09"/></g><g><path class="cls-2" d="m105.29,180.52C45.47,146.84,0,276.7,0,276.7c0,0,37.67-61.92,79.28-38.49l26.01-57.69Z"/><path class="cls-2" d="m175.4,220c59.82,33.68-27.62,139.9-27.62,139.9,0,0,33.4-64.32-8.21-87.75l35.83-52.15Z"/><path class="cls-13" d="m193.47,240.21c-3.07-8.03-8.8-14.99-18.07-20.21l-35.83,52.15c7.05,3.97,11.94,9.11,15.21,14.91,12.86-14.43,25.99-30.14,38.69-46.86Z"/><path class="cls-7" d="m216.4,176.66C269.31,82.68,253.39,0,253.39,0c0,0-78.95,29.27-131.86,123.25-22.44,39.86-36.59,84.96-45.45,123.69-.05.07-.1.13-.15.2-2.05,3.64,9.32,13.92,25.39,22.97,16.07,9.05,30.76,13.43,32.81,9.79.04-.07.07-.15.1-.23,28.52-27.66,59.73-63.15,82.18-103.01Z"/><path class="cls-6" d="m128.09,279.05c-6.52-1.7-15.77-5.64-25.53-11.13-9.76-5.5-17.93-11.36-22.76-16.06-1.12,3.56-2.2,7.08-3.24,10.53-.05.07-.1.13-.14.21-2.05,3.64,6.2,12.16,18.41,19.04,12.22,6.88,23.78,9.51,25.83,5.87.04-.07.07-.15.1-.23,2.42-2.68,4.86-5.43,7.33-8.23Z"/><g><g><g><path class="cls-10" d="m182.17,110.2c.69-.45,1.07-.98,1-1.49-.15-1.11-2.4-1.74-5.04-1.39-2.63.35-4.65,1.53-4.5,2.65.07.55.67.99,1.57,1.24,6.45,2.9,7.07,9.29,7.94,8.9.91-.4-3.62-7.47-.98-9.91Z"/><path class="cls-10" d="m197.22,116.42c-.19-.8-.11-1.45.29-1.77.87-.71,2.94.38,4.62,2.44s2.34,4.3,1.47,5.01c-.43.35-1.16.26-1.99-.17-6.69-2.3-11.51,1.92-11.88,1.04-.39-.92,7.76-2.97,7.5-6.55Z"/></g><ellipse class="cls-11" cx="178.45" cy="109.23" rx="3.9" ry="1.24" transform="translate(-14.4 28.1) rotate(-8.65)"/><ellipse class="cls-11" cx="200.55" cy="118.2" rx="1.27" ry="3.77" transform="translate(-30.87 143.42) rotate(-36.73)"/></g><path class="cls-10" d="m173.64,122.92l-8.46,20.23,20.36,8.51,8.52-20.37c2.5-5.98-.69-12.93-7.1-14.83-5.21-1.54-11.23,1.44-13.32,6.45Z"/><g><circle class="cls-1" cx="183.94" cy="126.89" r="5.94" transform="translate(-4.08 247.65) rotate(-67.31)"/><path class="cls-9" d="m181.48,132.95c-3.29-1.38-4.85-5.18-3.48-8.47s5.18-4.85,8.47-3.48,4.85,5.18,3.48,8.47-5.18,4.85-8.47,3.48Zm4.57-10.94c-2.74-1.14-5.9.15-7.04,2.89s.15,5.89,2.89,7.04,5.9-.15,7.04-2.89-.15-5.89-2.89-7.04Z"/><circle class="cls-11" cx="183.99" cy="127" r="2.12" transform="translate(-4.16 247.76) rotate(-67.31)"/></g></g><path class="cls-13" d="m128.09,279.05c-1.63-.42-3.44-.99-5.38-1.69-2.67,3.49-5.32,6.93-7.94,10.3-.05.11-.1.23-.17.34-.19.34-.42.66-.69.96,3.45.48,5.91.05,6.75-1.45.04-.07.07-.15.1-.23,2.42-2.68,4.86-5.43,7.33-8.23Z"/><path class="cls-1" d="m103.48,266.27c-15.1-8.5-26.24-17.96-26.7-22.37-.24,1.02-.47,2.03-.71,3.04-.05.07-.1.13-.15.2-2.05,3.64,9.32,13.92,25.39,22.97,16.07,9.05,30.76,13.43,32.81,9.79.04-.07.07-.15.1-.23.74-.72,1.49-1.45,2.24-2.18-4.01,1.9-17.88-2.73-32.98-11.23Z"/><path class="cls-8" d="m166.48,113.78c7.1-12.61,18.92-15.96,31.85-10.1-.67-.46,2.32-2.43,1.6-2.84-13.33-7.5-33.76-4.78-41.26,8.55-7.5,13.33.77,32.21,14.09,39.71.72.4.86-3.17,1.6-2.84-11.72-8.02-14.98-19.87-7.88-32.48Z"/><circle class="cls-12" cx="185.8" cy="122.96" r="27.69"/><path class="cls-13" d="m202.56,98.36c-7.55-4.25-15.98-5.3-23.64-3.6,5.63-.46,11.46.69,16.76,3.68,14.11,7.94,19.11,25.82,11.16,39.93-7.31,12.98-23.01,18.24-36.46,12.82.59.38,1.19.76,1.82,1.11,15.67,8.82,33.17,2,41.55-12.89,8.38-14.89,4.49-32.21-11.19-41.04Z"/><path class="cls-1" d="m168.33,150.33c-14.87-8.37-20.15-27.28-11.78-42.15s27.28-20.15,42.15-11.78c14.87,8.37,20.15,27.28,11.78,42.15-8.37,14.87-27.28,20.15-42.15,11.78Zm27.17-48.25c-11.74-6.61-26.67-2.44-33.27,9.3-6.61,11.74-2.44,26.67,9.3,33.27s26.67,2.44,33.27-9.3c6.61-11.74,2.44-26.67-9.3-33.27Z"/><path class="cls-2" d="m213.21,71.37c12.18,6.85,24.64,11.91,36.81,15.21C260.24,35.58,253.39,0,253.39,0c0,0-33.97,12.59-72.28,47.79,9.13,8.7,19.92,16.73,32.1,23.58Z"/><g><path class="cls-1" d="m253.39,0s-.02,0-.05.02c.03-.01.05-.02.05-.02Z"/><path class="cls-1" d="m253.56,1s0,0,0,.01c0,0,0,0,0-.01Z"/><path class="cls-1" d="m253.39,0s0,.02,0,.05c0-.03,0-.05,0-.05Z"/><path class="cls-1" d="m253.44.25h0s0,0,0,0Z"/><path class="cls-1" d="m253.28.04s0,0,0,0c0,0,0,0,0,0Z"/><path class="cls-1" d="m253.15.09h0s0,0,0,0Z"/><path class="cls-1" d="m252.44.37s0,0,.01,0c0,0,0,0-.01,0Z"/><path class="cls-1" d="m253.41.11s0,0,0,0c0,0,0,0,0,0Z"/><path class="cls-1" d="m250.01,86.58c-12.17-3.3-24.63-8.36-36.8-15.21-12.17-6.85-22.96-14.88-32.09-23.58-1.63,1.49-3.26,3.02-4.9,4.6,9.44,9.25,20.74,17.79,33.59,25.02,12.84,7.23,26.01,12.47,38.81,15.74.5-2.22.96-4.41,1.39-6.57Z"/></g><path class="cls-1" d="m89.79,197.08c-.85,2.62-1.68,5.24-2.49,7.85,9.41,9.54,21.55,18.81,35.65,26.75,14.1,7.94,28.33,13.51,41.36,16.61,1.81-2.04,3.62-4.11,5.42-6.2-13.49-3.01-28.35-8.71-43.07-17-14.72-8.29-27.3-18.03-36.88-28.01Z"/><path class="cls-13" d="m127.15,280.8c3.69.7,6.21.46,6.97-.9.04-.07.07-.15.1-.23,7.96-7.73,16.14-16.06,24.28-24.94,21.31-23.9,43.11-51.8,57.9-78.07C269.31,82.68,253.39,0,253.39,0c0,0-5.3,136.46-126.24,280.8Z"/><path class="cls-2" d="m115.62,263.96c-18.38,32.64-42.33,54-42.33,54,0,0,5.84-31.56,24.21-64.2,18.38-32.64,42.33-54,42.33-54,0,0-5.84,31.56-24.21,64.2Z"/><path class="cls-13" d="m139.02,201.85l-65.6,116.52c-.13.65-.2.99-.2.99,0,0,23.96-21.36,42.33-54,18.38-32.64,24.21-64.2,24.21-64.2,0,0-.26.23-.75.68Z"/></g></g></g></svg>