<?xml version="1.0" encoding="UTF-8"?><svg id="Layer_2" xmlns="http://www.w3.org/2000/svg" xmlns:xlink="http://www.w3.org/1999/xlink" viewBox="0 0 423.58 526"><defs><style>.cls-1{fill:url(#linear-gradient);opacity:.53;}</style><linearGradient id="linear-gradient" x1="211.79" y1="520.56" x2="211.79" y2="188.06" gradientUnits="userSpaceOnUse"><stop offset="0" stop-color="#409234" stop-opacity="0"/><stop offset="1" stop-color="#409234"/></linearGradient></defs><g id="content"><path class="cls-1" d="m291.56,0c3.64,13.78-4.07,16.04-.43,29.82s11.35,11.52,14.99,25.31c3.64,13.78-4.07,16.04-.43,29.82,3.64,13.78,11.35,11.53,14.99,25.31s-4.07,16.04-.43,29.82,11.35,11.53,14.99,25.31c3.64,13.78-4.07,16.04-.43,29.82,3.64,13.78,11.35,11.53,14.99,25.31,3.64,13.78-4.07,16.04-.43,29.82s11.35,11.53,14.99,25.31-4.07,16.04-.43,29.82,11.35,11.53,14.99,25.31-4.07,16.04-.43,29.82,11.35,11.53,14.99,25.31c3.64,13.78-4.07,16.04-.43,29.82,3.64,13.78,11.35,11.53,14.99,25.31,3.64,13.78-4.07,16.04-.43,29.82,3.64,13.79,11.35,11.53,14.99,25.32s-4.07,16.04-.43,29.83H0c3.64-13.79,9.2-13.79,12.84-27.57s-4.07-16.04-.43-29.83c3.64-13.78,11.35-11.53,14.99-25.31,3.64-13.78-4.07-16.04-.43-29.82,3.64-13.78,11.35-11.53,14.99-25.31,3.64-13.78-4.07-16.04-.43-29.82s11.35-11.53,14.99-25.31c3.64-13.78-4.07-16.04-.43-29.82,3.64-13.78,11.35-11.52,14.98-25.3s-4.07-16.04-.43-29.82,11.35-11.53,14.99-25.31c3.64-13.78-4.07-16.04-.43-29.82,3.64-13.78,11.35-11.53,14.99-25.31,3.64-13.78-4.07-16.04-.43-29.82,3.64-13.78,11.35-11.53,14.99-25.31s-4.07-16.04-.43-29.82,11.35-11.53,14.99-25.31-4.07-16.04-.43-29.82,11.35-11.52,14.99-25.31L291.56,0Z"/></g></svg>